<svg width="1200" height="414" fill="none" xmlns="http://www.w3.org/2000/svg">
  <g opacity=".5">
    <mask id="a" maskUnits="userSpaceOnUse" x="0" y="0" width="1204" height="415">
      <path d="M0 414V0h1204v414H0z" transform="rotate(180 602 207)" fill="#fff"/>
    </mask>
    <g mask="url(#a)">
      <path clip-rule="evenodd" d="M0 15.166l31.49 19.645L0 42.865V15.166zm116.649-2.127l38.088 20.128-87.426 23.995-35.82-22.35 85.158-21.773zm116.791-1.49l43.61 19.965-80.324 23.826-41.989-22.173 78.703-21.618zm115.945-1.468l49.058 19.81-73.331 23.635-48.062-22.013 72.335-21.432zm115.12-1.48l54.414 19.675-66.441 23.447-54.035-21.832 66.062-21.29zm114.297-1.458l59.695 19.526-59.652 23.274-59.926-21.667 59.883-21.133zm113.479-1.457l64.895 19.39-52.971 23.097-65.708-21.504 53.784-20.983zm112.678-1.435l70.029 19.252-46.391 22.917-71.421-21.344 47.783-20.825zm111.885-1.424l75.066 19.109-39.908 22.736-77.014-21.169 41.856-20.676zM1027.92 1.4l80.05 18.968-33.51 22.578-82.55-21.011L1027.92 1.4zM1213.13 16.6v10.51l-17.15 14.123-88.01-20.863L1138.24 0l74.89 16.6zM0 75.643V42.865l31.49-8.054 35.821 22.351L0 75.643zm154.737-42.476l41.989 22.173-89.706 26.591-39.709-24.769 87.426-23.995zm122.313-1.654l48.062 22.013-81.862 26.38-46.524-24.566 80.324-23.827zm121.393-1.622l54.035 21.832-74.135 26.166-53.231-24.363 73.331-23.635zm120.476-1.615l59.926 21.667-66.539 25.953-59.828-24.173 66.441-23.447zm119.578-1.607l65.708 21.504-59.05 25.738-66.31-23.968 59.652-23.273zm118.679-1.593l71.421 21.344L776.9 71.955l-72.695-23.782 52.971-23.097zm117.812-1.573l77.014 21.169L907.566 70l-78.969-23.58 46.391-22.917zm116.922-1.567l82.55 21.01-37.32 25.13-85.138-23.404 39.908-22.736zm116.06-1.567l88.01 20.863-30.32 24.932-91.2-23.217 33.51-22.578zm105.16 6.74v18.188l-17.15-4.065 17.15-14.124zM67.311 57.161l39.709 24.77L6.168 111.833 0 107.135V75.643l67.311-18.48zm129.415-1.822l46.524 24.565-91.973 29.651-44.257-27.625 89.706-26.59zm128.386-1.814l53.231 24.363-83.26 29.387-51.833-27.37 81.862-26.38zm127.366-1.803l59.828 24.173-74.687 29.129-59.276-27.136 74.135-26.166zm126.367-1.78l66.31 23.968-66.255 28.894-66.594-26.91 66.539-25.952zm125.36-1.77L776.9 71.955l-57.97 28.637-73.775-26.681 59.05-25.738zm124.392-1.753L907.566 70l-49.823 28.412L776.9 71.955l51.697-25.535zm123.405-1.748l85.138 23.405-41.796 28.153L907.566 70l44.436-25.328zm122.458-1.725l91.2 23.217-33.91 27.92-94.61-26.007 37.32-25.13zm138.67 2.35V78.24l-47.47-12.075 30.32-24.932 17.15 4.065zM107.02 81.931l44.257 27.625-104.098 33.533-41.011-31.255L107.02 81.931zm136.23-2.026l51.833 27.371-94.173 33.246-49.633-30.966 91.973-29.65zm135.093-2.016l59.276 27.136-84.428 32.937-58.108-30.686 83.26-29.387zm133.963-1.993l66.594 26.909-74.866 32.626-66.415-30.406 74.687-29.13zm132.849-1.985l73.775 26.681-65.459 32.336-74.571-30.123 66.255-28.894zM776.9 71.955l80.843 26.457-56.229 32.038-82.584-29.858 57.97-28.637zM907.566 70l87.778 26.23-47.161 31.761-90.44-29.58L907.566 70zm129.574-1.923l94.61 26.008-38.25 31.478-98.156-29.333 41.796-28.153zm175.99 10.162v38.214l-81.38-22.368 33.91-27.92 47.47 12.074zM0 158.298v-44.633l6.168-1.831 41.01 31.255L0 158.298zm151.277-48.742l49.633 30.966-107.387 37.899-46.344-35.332 104.098-33.533zm143.806-2.28l58.108 30.686-96.214 37.54-56.067-34.98 94.173-33.246zm142.536-2.251l66.415 30.406-85.257 37.167-65.586-34.636 84.428-32.937zm141.281-2.22l74.571 30.123-74.505 36.811-74.932-34.308 74.866-32.626zm140.03-2.213l82.584 29.858-63.962 36.448-84.081-33.97 65.459-32.336zm138.813-2.18l90.44 29.579-53.604 36.114-93.065-33.655 56.229-32.038zm137.601-2.182l98.156 29.333-43.45 35.761-101.867-33.333 47.161-31.76zm217.786 20.223V161.3l-9.13-2.739-110.5-32.998 38.25-31.478 81.38 22.368zM0 211.425v-53.127l47.179-15.209 46.344 35.332L0 211.425zm200.91-70.903l56.067 34.98-110.651 43.155-52.803-40.236 107.387-37.899zm152.281-2.56l65.586 34.636-97.976 42.716-63.824-39.812 96.214-37.54zm150.843-2.531l74.932 34.308-85.567 42.266-74.622-39.407 85.257-37.167zm149.437-2.503l84.081 33.97-73.397 41.842-85.189-39.001 74.505-36.811zm148.043-2.478l93.065 33.655-61.484 41.407-95.543-38.614 63.962-36.448zm146.669-2.459l101.867 33.333-49.8 40.978-105.671-38.197 53.604-36.114zm145.317-2.428l110.5 32.998-38.37 40.575-115.58-37.812 43.45-35.761zM93.523 178.421l52.803 40.236-128.6 50.161L0 251.461v-40.036l93.523-33.004zm163.454-2.919l63.824 39.812-113.778 49.603-60.697-46.26 110.651-43.155zm161.8-2.904l74.622 39.407-99.278 49.054-73.32-45.745 97.976-42.716zm160.189-2.859l85.189 39.001-85.101 48.497-85.655-45.232 85.567-42.266zm158.586-2.841l95.543 38.614-71.224 47.955-97.716-44.727 73.397-41.842zm157.027-2.793l105.671 38.197-57.655 47.451-109.5-44.241 61.484-41.407zm155.471-2.781l115.58 37.812-44.35 46.924-121.03-43.758 49.8-40.978zm163.08-.024v53.38l-47.5-15.544 38.37-40.575 9.13 2.739zM0 251.461l17.727 17.357L0 275.732v-24.271zm146.326-32.804l60.697 46.26-133.736 58.298-55.56-54.397 128.599-50.161zm174.475-3.343l73.32 45.745-116.589 57.598-70.509-53.74 113.778-49.603zm172.598-3.309l85.655 45.232-99.844 56.917-85.089-53.095 99.278-49.054zm170.756-3.265l97.716 44.727-83.488 56.238-99.329-52.468 85.101-48.497zm168.94-3.228l109.5 44.241-67.513 55.564-113.211-51.85 71.224-47.955zm167.155-3.21l121.03 43.758-51.91 54.912-126.775-51.219 57.655-47.451zm212.88 12.378v64.59l-91.85-33.21 44.35-46.924 47.5 15.544zM0 355.167v-79.435l17.727-6.914 55.56 54.397L0 355.167zm207.023-90.25l70.509 53.74-138.846 68.597-65.4-64.039 133.737-58.298zm187.098-3.858l85.089 53.095-118.768 67.688-82.91-63.185 116.589-57.598zm184.933-3.822l99.329 52.468-99.209 66.811-99.964-62.362 99.844-56.917zm182.817-3.77l113.211 51.85-80.139 65.946-116.56-61.558 83.488-56.238zm180.724-3.714l126.775 51.219-61.55 65.102-132.738-60.757 67.513-55.564zm270.535 29.517v79.786l-143.76-58.084 51.91-54.912 91.85 33.21zM0 455.769V355.167l73.287-31.952 65.399 64.039L0 455.769zm277.532-137.112l82.91 63.185-143.651 81.881-78.105-76.469 138.846-68.597zm201.678-4.503l99.964 62.362-119.837 80.712-98.895-75.386 118.768-67.688zm199.173-4.449l116.56 61.558-96.674 79.564-119.095-74.311 99.209-66.811zm196.699-4.388l132.738 60.757-74.153 78.446-138.724-73.257 80.139-65.946zm338.048 53.739v8.875l-47.55 70.368-157.76-72.225 61.55-65.102 143.76 58.084zM340.651 537.16h-48.848l-75.012-73.437 143.651-81.881 98.895 75.386-118.686 79.932zm252.719 0h-29.149l-104.884-79.932 119.837-80.712 119.095 74.311L593.37 537.16zm252.701 0h-9.422l-138.38-86.333 96.674-79.564 138.724 73.257-87.596 92.64zm161.749-171.086l157.76 72.225-64.09 94.841-167.823-88.62 74.153-78.446zm205.31 1.857v92.139l-47.55-21.771 47.55-70.368z" transform="rotate(180 602 207)" stroke="url(#paint0_linear)"/>
    </g>
  </g>
  <defs>
    <linearGradient id="paint0_linear" x2="1" gradientUnits="userSpaceOnUse" gradientTransform="matrix(0 -537.16 1213.13 0 385.218 537.16)">
      <stop stop-color="#D3D4D9"/>
      <stop offset="1" stop-color="#D3D4D9" stop-opacity="0"/>
    </linearGradient>
  </defs>
</svg>
