<svg width="52" height="52" viewBox="0 0 52 52" fill="none" xmlns="http://www.w3.org/2000/svg">
  <rect width="52" height="52" fill="url(#js_paint0_linear)"/>
  <path d="M8.80859 2.9375H11.7617V14.9023C11.7617 16.5352 11.25 17.832 10.2266 18.793C9.21094 19.7539 7.86719 20.2344 6.19531 20.2344C4.41406 20.2344 3.03906 19.7852 2.07031 18.8867C1.10156 17.9883 0.617188 16.7383 0.617188 15.1367H3.57031C3.57031 16.043 3.79297 16.7266 4.23828 17.1875C4.69141 17.6406 5.34375 17.8672 6.19531 17.8672C6.99219 17.8672 7.625 17.6055 8.09375 17.082C8.57031 16.5508 8.80859 15.8203 8.80859 14.8906V2.9375ZM24.0781 15.6055C24.0781 14.8555 23.8125 14.2773 23.2812 13.8711C22.7578 13.4648 21.8086 13.0547 20.4336 12.6406C19.0586 12.2266 17.9648 11.7656 17.1523 11.2578C15.5977 10.2812 14.8203 9.00781 14.8203 7.4375C14.8203 6.0625 15.3789 4.92969 16.4961 4.03906C17.6211 3.14844 19.0781 2.70312 20.8672 2.70312C22.0547 2.70312 23.1133 2.92188 24.043 3.35938C24.9727 3.79687 25.7031 4.42188 26.2344 5.23438C26.7656 6.03906 27.0312 6.93359 27.0312 7.91797H24.0781C24.0781 7.02734 23.7969 6.33203 23.2344 5.83203C22.6797 5.32422 21.8828 5.07031 20.8438 5.07031C19.875 5.07031 19.1211 5.27734 18.582 5.69141C18.0508 6.10547 17.7852 6.68359 17.7852 7.42578C17.7852 8.05078 18.0742 8.57422 18.6523 8.99609C19.2305 9.41016 20.1836 9.81641 21.5117 10.2148C22.8398 10.6055 23.9062 11.0547 24.7109 11.5625C25.5156 12.0625 26.1055 12.6406 26.4805 13.2969C26.8555 13.9453 27.043 14.707 27.043 15.582C27.043 17.0039 26.4961 18.1367 25.4023 18.9805C24.3164 19.8164 22.8398 20.2344 20.9727 20.2344C19.7383 20.2344 18.6016 20.0078 17.5625 19.5547C16.5312 19.0938 15.7266 18.4609 15.1484 17.6562C14.5781 16.8516 14.293 15.9141 14.293 14.8438H17.2578C17.2578 15.8125 17.5781 16.5625 18.2188 17.0938C18.8594 17.625 19.7773 17.8906 20.9727 17.8906C22.0039 17.8906 22.7773 17.6836 23.293 17.2695C23.8164 16.8477 24.0781 16.293 24.0781 15.6055Z" transform="translate(12 14)" fill="white"/>
  <defs>
    <linearGradient id="js_paint0_linear" x2="1" gradientUnits="userSpaceOnUse" gradientTransform="matrix(-52 52 -46.8281 -46.8281 75.4141 23.4141)">
      <stop stop-color="#FF00E5"/>
      <stop offset="1" stop-color="#7E00E4"/>
    </linearGradient>
  </defs>
</svg>
